HIERARCHY
ROOT Hips
{
	OFFSET 0.000000 0.000000 0.000000
	CHANNELS 6 Xposition Yposition Zposition Xrotation Yrotation Zrotation
	JOINT C_ctrl
	{
		OFFSET 0.000000 35.040482 -0.000011
		CHANNELS 3 Xrotation Yrotation Zrotation
		JOINT Bip01
		{
			OFFSET -41.537640 41.789009 -0.000007
			CHANNELS 3 Xrotation Yrotation Zrotation
			JOINT Bip01_Pelvis
			{
				OFFSET -2.462887 0.000000 0.000000
				CHANNELS 3 Xrotation Yrotation Zrotation
				JOINT BN_Tail_01
				{
					OFFSET -11.399368 7.351341 -0.000013
					CHANNELS 3 Xrotation Yrotation Zrotation
					JOINT BN_Tail_02
					{
						OFFSET -11.365196 -0.343025 0.000012
						CHANNELS 3 Xrotation Yrotation Zrotation
						JOINT BN_Tail_03
						{
							OFFSET -15.076256 -0.454979 0.000017
							CHANNELS 3 Xrotation Yrotation Zrotation
							JOINT BN_Tail_04
							{
								OFFSET -17.395691 -0.525002 0.000016
								CHANNELS 3 Xrotation Yrotation Zrotation
								JOINT BN_Tail_05
								{
									OFFSET -16.699837 -0.504005 0.000016
									CHANNELS 3 Xrotation Yrotation Zrotation
									End Site
									{
										OFFSET 0.503998 -16.699829 0.000067
									}
								}
							}
						}
					}
				}
				JOINT Bip01_Spine
				{
					OFFSET 8.297798 5.916809 -0.000020
					CHANNELS 3 Xrotation Yrotation Zrotation
					JOINT Bip01_R_Thigh
					{
						OFFSET -8.297779 -5.916794 10.541781
						CHANNELS 3 Xrotation Yrotation Zrotation
						JOINT Bip01_R_Calf
						{
							OFFSET 5.631542 -22.906792 0.862690
							CHANNELS 3 Xrotation Yrotation Zrotation
							JOINT Bip01_R_HorseLink
							{
								OFFSET -16.984341 -19.231926 -3.555767
								CHANNELS 3 Xrotation Yrotation Zrotation
								JOINT Bip01_R_Foot
								{
									OFFSET 4.290367 -24.783146 0.578056
									CHANNELS 3 Xrotation Yrotation Zrotation
									JOINT Bip01_R_Toe0
									{
										OFFSET 3.561211 -5.815116 0.760802
										CHANNELS 3 Xrotation Yrotation Zrotation
										JOINT Bip01_R_Toe0Nub
										{
											OFFSET 16.135469 0.002017 1.534789
											CHANNELS 3 Xrotation Yrotation Zrotation
											End Site
											{
												OFFSET -0.000002 16.208284 -0.000056
											}
										}
									}
								}
							}
						}
					}
					JOINT Bip01_L_Thigh
					{
						OFFSET -8.297813 -5.916832 -10.541739
						CHANNELS 3 Xrotation Yrotation Zrotation
						JOINT Bip01_L_Calf
						{
							OFFSET 5.631535 -22.906792 -0.862625
							CHANNELS 3 Xrotation Yrotation Zrotation
							JOINT Bip01_L_HorseLink
							{
								OFFSET -16.984318 -19.231949 3.555875
								CHANNELS 3 Xrotation Yrotation Zrotation
								JOINT Bip01_L_Foot
								{
									OFFSET 4.290367 -24.783169 -0.577965
									CHANNELS 3 Xrotation Yrotation Zrotation
									JOINT Bip01_L_Toe0
									{
										OFFSET 3.561245 -5.815111 -0.760799
										CHANNELS 3 Xrotation Yrotation Zrotation
										JOINT Bip01_L_Toe0Nub
										{
											OFFSET 6.574303 -0.000005 -1.538561
											CHANNELS 3 Xrotation Yrotation Zrotation
											End Site
											{
												OFFSET 0.000004 -6.751935 0.000023
											}
										}
									}
								}
							}
						}
					}
					JOINT Bip01_Spine1
					{
						OFFSET 20.556803 -4.626213 -0.000025
						CHANNELS 3 Xrotation Yrotation Zrotation
						JOINT Saddle
						{
							OFFSET 17.608810 18.174690 -0.000143
							CHANNELS 3 Xrotation Yrotation Zrotation
							End Site
							{
								OFFSET -0.000063 -0.000061 -22.448387
							}
						}
						JOINT BN_center
						{
							OFFSET 10.743275 -13.417107 -0.172041
							CHANNELS 3 Xrotation Yrotation Zrotation
							End Site
							{
								OFFSET 22.434088 0.553078 -0.579614
							}
						}
						JOINT Bip01_Spine2
						{
							OFFSET 24.765072 -2.054115 -0.000032
							CHANNELS 3 Xrotation Yrotation Zrotation
							JOINT Handle
							{
								OFFSET 63.735676 16.430748 -16.052464
								CHANNELS 3 Xrotation Yrotation Zrotation
								JOINT IK_Chain01
								{
									OFFSET -4.713058 -6.020439 0.185448
									CHANNELS 3 Xrotation Yrotation Zrotation
									End Site
									{
										OFFSET -0.000023 -0.000023 -7.648071
									}
								}
							}
							JOINT BN_hair04_01
							{
								OFFSET 1.987491 16.256981 -2.049672
								CHANNELS 3 Xrotation Yrotation Zrotation
								JOINT BN_hair04_02
								{
									OFFSET -1.318762 -3.831451 -6.174704
									CHANNELS 3 Xrotation Yrotation Zrotation
									JOINT BN_hair04_03
									{
										OFFSET -0.827490 -5.886627 -5.656666
										CHANNELS 3 Xrotation Yrotation Zrotation
										End Site
										{
											OFFSET -2.658262 5.010620 -5.929780
										}
									}
								}
							}
							JOINT Bip01_Neck
							{
								OFFSET 25.574577 9.433014 -0.000084
								CHANNELS 3 Xrotation Yrotation Zrotation
								JOINT Bip01_R_Clavicle
								{
									OFFSET -16.535652 0.011192 6.705692
									CHANNELS 3 Xrotation Yrotation Zrotation
									JOINT Bip01_R_UpperArm
									{
										OFFSET 20.272621 -12.959984 2.510816
										CHANNELS 3 Xrotation Yrotation Zrotation
										JOINT Bip01_R_Forearm
										{
											OFFSET -13.633509 -15.503704 -0.653585
											CHANNELS 3 Xrotation Yrotation Zrotation
											JOINT Bip01_R_Hand
											{
												OFFSET 2.580030 -27.804676 -1.136415
												CHANNELS 3 Xrotation Yrotation Zrotation
												JOINT Bip01_R_Finger0
												{
													OFFSET -0.281744 -19.659061 -0.398649
													CHANNELS 3 Xrotation Yrotation Zrotation
													JOINT Bip01_Xtra02
													{
														OFFSET 4.152210 -5.712314 0.433813
														CHANNELS 3 Xrotation Yrotation Zrotation
														JOINT Bip01_Xtra02Nub
														{
															OFFSET 15.457960 0.041654 0.507982
															CHANNELS 3 Xrotation Yrotation Zrotation
															End Site
															{
																OFFSET -15.421730 -0.157725 -1.163459
															}
														}
													}
													JOINT Bip01_R_Finger0Nub
													{
														OFFSET 8.362326 -9.718440 -0.143142
														CHANNELS 3 Xrotation Yrotation Zrotation
														End Site
														{
															OFFSET -1.213036 -0.198171 9.872291
														}
													}
												}
											}
										}
									}
								}
								JOINT Bip01_L_Clavicle
								{
									OFFSET -16.535673 0.011162 -6.705583
									CHANNELS 3 Xrotation Yrotation Zrotation
									JOINT Bip01_L_UpperArm
									{
										OFFSET 20.272615 -12.959999 -2.510836
										CHANNELS 3 Xrotation Yrotation Zrotation
										JOINT Bip01_L_Forearm
										{
											OFFSET -13.633495 -15.503681 0.653678
											CHANNELS 3 Xrotation Yrotation Zrotation
											JOINT Bip01_L_Hand
											{
												OFFSET 2.579988 -27.804686 1.136487
												CHANNELS 3 Xrotation Yrotation Zrotation
												JOINT Bip01_L_Finger0
												{
													OFFSET -0.281765 -19.659058 0.398696
													CHANNELS 3 Xrotation Yrotation Zrotation
													JOINT Bip01_Xtra01
													{
														OFFSET 4.083549 -5.738758 -0.666714
														CHANNELS 3 Xrotation Yrotation Zrotation
														JOINT Bip01_Xtra01Nub
														{
															OFFSET 6.758158 -0.395525 -0.023239
															CHANNELS 3 Xrotation Yrotation Zrotation
															End Site
															{
																OFFSET 6.764923 -0.254147 -0.029908
															}
														}
													}
													JOINT Bip01_L_Finger0Nub
													{
														OFFSET -0.012636 -9.629153 0.045740
														CHANNELS 3 Xrotation Yrotation Zrotation
														End Site
														{
															OFFSET 0.988407 0.004791 8.293357
														}
													}
												}
											}
										}
									}
								}
								JOINT BN_hair03_01
								{
									OFFSET -5.894140 16.270622 -2.498433
									CHANNELS 3 Xrotation Yrotation Zrotation
									JOINT BN_hair03_02
									{
										OFFSET -0.189278 -7.800507 -6.219162
										CHANNELS 3 Xrotation Yrotation Zrotation
										JOINT BN_hair03_03
										{
											OFFSET 0.612345 -10.844475 -3.370718
											CHANNELS 3 Xrotation Yrotation Zrotation
											End Site
											{
												OFFSET -2.273296 2.862007 -10.769416
											}
										}
									}
								}
								JOINT Bip01_Neck1
								{
									OFFSET 9.383755 11.908699 -0.000007
									CHANNELS 3 Xrotation Yrotation Zrotation
									JOINT BN_hair02_01
									{
										OFFSET 9.126320 18.808022 -1.420810
										CHANNELS 3 Xrotation Yrotation Zrotation
										JOINT BN_hair02_02
										{
											OFFSET 0.393478 -5.181091 -5.248574
											CHANNELS 3 Xrotation Yrotation Zrotation
											JOINT BN_hair02_03
											{
												OFFSET 0.762280 -8.167076 -0.230047
												CHANNELS 3 Xrotation Yrotation Zrotation
												End Site
												{
													OFFSET -0.025837 -1.251419 -8.109770
												}
											}
										}
									}
									JOINT Bip01_Head
									{
										OFFSET 14.266129 10.475403 -0.000008
										CHANNELS 3 Xrotation Yrotation Zrotation
										JOINT BN_Reins_01
										{
											OFFSET 18.547455 -15.740112 -0.000035
											CHANNELS 3 Xrotation Yrotation Zrotation
											JOINT BN_Reins_02
											{
												OFFSET -5.372810 -5.884506 0.000028
												CHANNELS 3 Xrotation Yrotation Zrotation
												JOINT BN_Reins_03
												{
													OFFSET -6.395866 -15.947449 0.000070
													CHANNELS 3 Xrotation Yrotation Zrotation
													JOINT BN_Halter_R_01
													{
														OFFSET -1.234055 -3.096100 7.096737
														CHANNELS 3 Xrotation Yrotation Zrotation
														End Site
														{
															OFFSET 10.514435 -4.176861 -0.000004
														}
													}
													JOINT BN_Halter_L_01
													{
														OFFSET -1.234062 -3.096146 -7.096726
														CHANNELS 3 Xrotation Yrotation Zrotation
														End Site
														{
															OFFSET -10.514435 4.176865 -0.000000
														}
													}
													JOINT BN_Reins_04
													{
														OFFSET -6.737644 -16.971684 0.000074
														CHANNELS 3 Xrotation Yrotation Zrotation
														JOINT BN_Halter_R_02
														{
															OFFSET -4.688869 -11.781956 7.096771
															CHANNELS 3 Xrotation Yrotation Zrotation
															End Site
															{
																OFFSET 14.669624 -5.827511 -0.000006
															}
														}
														JOINT BN_Halter_L_02
														{
															OFFSET -4.688892 -11.782017 -7.096693
															CHANNELS 3 Xrotation Yrotation Zrotation
															End Site
															{
																OFFSET -14.669624 5.827507 -0.000002
															}
														}
														JOINT BN_Reins_05
														{
															OFFSET -6.822578 -16.971161 0.000074
															CHANNELS 3 Xrotation Yrotation Zrotation
															JOINT BN_Reins_06
															{
																OFFSET -6.140354 -15.095148 0.000066
																CHANNELS 3 Xrotation Yrotation Zrotation
																End Site
																{
																	OFFSET -15.095150 6.140352 -0.000002
																}
															}
														}
													}
												}
											}
										}
										JOINT BN_hair01_01
										{
											OFFSET 8.957344 8.870956 0.112121
											CHANNELS 3 Xrotation Yrotation Zrotation
											JOINT BN_hair01_02
											{
												OFFSET 6.002075 -2.962952 -3.121264
												CHANNELS 3 Xrotation Yrotation Zrotation
												End Site
												{
													OFFSET 5.917702 3.813591 -2.232396
												}
											}
										}
										JOINT BN_Eyebrow_R
										{
											OFFSET 11.795959 -0.430496 4.449781
											CHANNELS 3 Xrotation Yrotation Zrotation
											JOINT Bip01_Xtra06Nub
											{
												OFFSET 2.936661 -0.262573 3.246701
												CHANNELS 3 Xrotation Yrotation Zrotation
												End Site
												{
													OFFSET 2.768745 0.208199 3.394807
												}
											}
										}
										JOINT BN_Eyebrow_L
										{
											OFFSET 11.586395 -0.445618 -4.441728
											CHANNELS 3 Xrotation Yrotation Zrotation
											JOINT Bip01_Xtra05Nub
											{
												OFFSET 3.244698 -0.349442 -4.416700
												CHANNELS 3 Xrotation Yrotation Zrotation
												End Site
												{
													OFFSET 3.053162 0.072495 -4.564033
												}
											}
										}
										JOINT Bip01_R_Ear_01
										{
											OFFSET 7.142960 7.567184 4.311657
											CHANNELS 3 Xrotation Yrotation Zrotation
											JOINT Bip01_Xtra04Nub
											{
												OFFSET 9.464531 9.264214 1.682953
												CHANNELS 3 Xrotation Yrotation Zrotation
												End Site
												{
													OFFSET 8.448181 10.159340 1.910823
												}
											}
										}
										JOINT Bip01__L_Ear_01
										{
											OFFSET 7.214943 7.717056 -4.356771
											CHANNELS 3 Xrotation Yrotation Zrotation
											JOINT Bip01_Xtra03Nub
											{
												OFFSET 9.230225 8.944366 -2.322746
												CHANNELS 3 Xrotation Yrotation Zrotation
												End Site
												{
													OFFSET 8.170288 9.841324 -2.643566
												}
											}
										}
										JOINT Bip01_Jaw
										{
											OFFSET 9.196068 -4.110695 -0.000013
											CHANNELS 3 Xrotation Yrotation Zrotation
											JOINT Bip01_Ponytail1Nub
											{
												OFFSET 10.976463 -21.082108 -0.000053
												CHANNELS 3 Xrotation Yrotation Zrotation
												End Site
												{
													OFFSET 11.247093 -20.938980 0.000113
												}
											}
										}
										JOINT Bip01_HeadNub
										{
											OFFSET 29.954575 -18.249489 -0.000063
											CHANNELS 3 Xrotation Yrotation Zrotation
											End Site
											{
												OFFSET -9.198448 -13.366348 0.000168
											}
										}
									}
								}
							}
						}
					}
				}
			}
		}
	}
}
MOTION
Frames: 4
Frame Time: 0.033333
0.000000 0.000000 0.000000 0.000008 0.000000 -0.000000 -0.000000 0.000000 -0.000000 0.000000 0.000003 -2.390326 -1.753761 -2.474157 -4.771123 0.420221 -1.625271 26.972164 2.991654 -3.908613 28.002060 1.717635 -3.163576 25.755465 -1.773545 -3.634889 13.676508 -1.252105 5.448144 16.168586 2.040890 4.866123 19.501264 -3.173420 8.740670 7.192888 3.191518 -0.279478 -16.279155 4.128055 -0.540981 -21.199186 -1.759277 0.932313 10.373418 -0.034423 -0.000067 0.160828 0.000101 -0.000137 0.000005 5.521219 -4.745147 36.156146 -2.720006 0.179838 -13.839597 -3.701279 0.410977 -18.942727 -2.145629 -6.686532 -7.541813 1.868490 0.151165 8.793789 -0.011944 -0.008651 -0.036688 -1.443326 -2.311178 -7.298350 0.917530 -0.020778 6.784390 1.530366 -0.151092 -0.014734 -0.397452 0.493137 -18.456092 0.000078 -0.000112 -0.000057 -0.000052 -0.014928 0.015044 0.161735 5.145160 -3.868221 -0.921817 5.072949 -5.738220 4.892401 2.269789 -3.436027 2.318656 -0.931630 -20.827284 -3.101371 -4.061177 -0.133835 1.843686 2.653995 51.944043 0.409483 -1.402838 36.236974 6.705747 -0.224453 -33.288433 -4.126572 5.506437 -20.500043 -1.002839 -0.004056 -0.069914 -0.802247 0.160617 -0.479864 -0.804181 0.123500 -0.482649 1.588818 6.694382 -4.138290 -3.857848 -3.557230 107.797515 -0.057159 -0.444592 -10.945205 -6.685735 0.150390 -69.087876 -1.975235 -1.973319 -18.509625 -2.458633 11.047585 -1.036268 0.036665 0.063834 2.451878 -0.000913 0.100573 2.451954 -0.498488 5.210406 -6.496128 0.668929 2.834629 -8.498929 -0.563793 0.686000 -3.321052 -2.252408 0.550651 -14.286795 -0.637809 6.314302 -6.164045 3.743151 0.676961 -13.299067 0.834655 -0.180433 -1.708116 -2.306326 -7.706851 6.368942 -0.000029 0.000325 33.480074 -0.441786 -0.458728 -72.796129 -0.000058 -0.000072 -21.993995 0.000020 -0.000007 -0.026807 0.000003 -0.000016 0.012747 -0.000096 -0.000112 -34.639885 0.000035 0.000015 0.015166 0.000025 -0.000011 0.012720 -0.000050 -0.000057 -24.223447 0.000013 -0.000013 -0.000046 6.007206 -2.429619 13.898851 6.329774 1.297065 7.833487 -8.971588 -17.013651 1.137402 0.024220 -0.029996 11.786634 0.012479 -0.002344 0.003938 0.023243 -0.032296 11.715940 -0.574938 -1.828847 13.057801 0.050297 0.015141 11.755986 0.767164 2.463546 12.687772 0.050155 0.014798 11.743131 0.646567 0.597926 -1.496389 -0.004490 -0.052639 11.750676 0.000071 -0.000033 11.750674 
0.000000 0.000000 0.000000 0.000008 0.000000 -0.000000 -0.000000 0.000000 -0.000000 0.000000 0.000002 -1.909959 -1.854916 -2.236254 -10.135880 0.465657 -0.892022 24.950351 2.668672 -3.071164 25.948309 1.870298 -3.391449 26.029842 -1.743072 -3.877037 14.396712 -1.178575 5.176694 16.146986 1.704546 4.984148 24.276494 -2.943720 8.580329 5.532550 3.598940 -0.382617 -18.405729 4.859407 -0.807598 -25.134181 -2.758423 0.743496 15.110634 0.602040 -0.014842 -2.819485 0.000101 -0.000137 0.000003 6.913825 -8.514534 37.423303 -4.005596 0.501736 -20.548827 -4.203649 0.565857 -21.601436 -1.744998 -3.141243 -1.946948 1.027509 0.043234 4.815396 -0.011945 -0.008653 -0.036691 -1.405877 -2.482361 -8.531085 0.917530 -0.020778 6.784393 1.530424 -0.151118 -0.014734 -0.393054 0.441658 -20.905271 0.000078 -0.000112 -0.000056 -0.000052 -0.014928 0.015041 0.250613 5.206780 -3.945096 -0.798054 5.127995 -5.838977 4.925551 2.465447 -3.690508 2.084553 -0.405814 -20.351225 -1.949705 -3.584315 1.986385 2.667329 -0.332947 52.873591 0.495862 -1.520931 39.806619 7.297474 -0.921773 -38.135173 -4.145049 5.567819 -19.235537 -1.002358 -0.004212 -0.069865 -0.802304 0.160617 -0.479868 -0.804181 0.123502 -0.482649 1.794761 5.981872 -3.660490 -3.539893 -3.270790 112.500456 -0.088689 -0.567853 -14.047637 -5.151221 -1.197280 -47.240310 -1.341648 -1.925601 -25.931085 -2.481878 11.076610 -1.034830 0.036722 0.063833 2.451875 -0.000913 0.100574 2.451957 0.555995 4.753581 -6.113471 1.894631 2.797566 -8.024734 -0.512350 0.816062 -3.690799 -2.531003 0.420414 -13.488474 -0.598421 6.491867 -6.350185 3.817173 0.690781 -13.558243 0.917073 -0.244126 -2.169631 0.090347 -7.544550 13.997853 -0.000029 0.000325 33.480071 -0.441785 -0.458728 -72.796122 -0.000059 -0.000072 -21.994001 0.000020 -0.000007 -0.026802 0.000002 -0.000015 0.012750 -0.000096 -0.000111 -34.639875 0.000036 0.000015 0.015163 0.000026 -0.000010 0.012720 -0.000049 -0.000057 -24.223440 0.000014 -0.000013 -0.000050 7.036598 -2.450425 15.915012 6.747277 1.245342 8.867705 -8.961374 -16.992054 1.140958 0.024257 -0.029983 11.786680 0.012449 -0.002436 0.003929 0.023274 -0.032285 11.715894 0.038360 -0.221380 1.131066 0.050320 0.015191 11.755996 -0.117460 0.191385 0.889264 0.050182 0.014844 11.743114 0.646567 0.597926 -1.496384 -0.004454 -0.052682 11.750675 0.000072 -0.000032 11.750670 
0.000000 0.000000 0.000000 0.000008 0.000000 -0.000000 -0.000000 0.000000 -0.000000 0.000000 0.000002 -1.760610 -1.936701 -1.909864 -14.387879 0.631915 -0.056760 22.395820 2.342773 -1.998150 23.364677 2.006632 -3.589891 26.274058 -1.713011 -4.092209 15.024413 -1.023108 4.616107 16.096353 1.434316 4.819184 28.174394 -2.543690 8.589812 3.817460 3.893347 -0.467278 -19.955270 5.275230 -0.985286 -27.418119 -3.115730 0.608789 16.735686 0.751126 -0.023098 -3.518369 0.000101 -0.000138 0.000001 7.269226 -11.784917 36.005940 -4.984004 0.858687 -25.814276 -4.097384 0.530956 -21.035934 -1.754007 -0.374393 2.302029 0.345677 0.004902 1.618632 -0.011945 -0.008652 -0.036690 -1.292180 -2.514980 -9.239122 0.917530 -0.020778 6.784389 1.530531 -0.151115 -0.014720 -0.410986 0.388402 -22.590806 0.000078 -0.000112 -0.000058 -0.000052 -0.014928 0.015043 0.345458 5.270421 -4.017827 -0.676588 5.181764 -5.937903 4.958833 2.656662 -3.940568 1.804884 0.167319 -19.696372 -0.954696 -3.319844 3.558073 3.174228 -2.596034 50.080316 0.622263 -1.669705 44.570389 7.749068 -1.529563 -41.494236 -4.014034 5.688976 -18.680438 -1.002600 -0.004254 -0.069901 -0.802412 0.160617 -0.479876 -0.804181 0.123500 -0.482648 2.065473 5.282445 -3.684108 -3.176109 -2.985151 115.175212 -0.109424 -0.636637 -15.799348 -3.689791 -1.780446 -30.422783 -0.795126 -2.009372 -32.064405 -2.482002 11.076698 -1.034836 0.036830 0.063820 2.451871 -0.000913 0.100573 2.451955 1.896173 4.205756 -5.625746 3.389066 2.737377 -7.425020 -0.461093 0.943288 -4.053488 -2.827541 0.259667 -12.500932 -0.540385 6.644488 -6.527327 3.886092 0.702710 -13.775831 0.997389 -0.307220 -2.622097 2.395636 -6.950494 20.554230 -0.000030 0.000325 33.480068 -0.441786 -0.458728 -72.796102 -0.000058 -0.000071 -21.993996 0.000019 -0.000008 -0.026805 0.000002 -0.000015 0.012750 -0.000097 -0.000111 -34.639882 0.000035 0.000016 0.015168 0.000025 -0.000010 0.012725 -0.000050 -0.000056 -24.223450 0.000013 -0.000013 -0.000050 7.963812 -2.373811 17.891578 7.550708 1.137736 10.699064 -8.951326 -16.970860 1.144464 0.024322 -0.029963 11.786760 0.012406 -0.002537 0.003940 0.023335 -0.032271 11.715806 0.934400 1.176614 -10.377475 0.050359 0.015290 11.756009 -1.404790 -1.771719 -10.509376 0.050219 0.014943 11.743082 0.646567 0.597926 -1.496388 -0.004385 -0.052764 11.750672 0.000072 -0.000033 11.750674 
0.000000 0.000000 0.000000 0.000008 0.000000 -0.000000 -0.000000 0.000000 -0.000000 0.000000 0.000003 -2.052348 -2.012843 -1.570629 -16.697881 0.944287 0.869010 19.354898 2.081261 -0.702287 20.300927 2.129988 -3.765184 26.484270 -1.684380 -4.279983 15.581518 -0.799638 3.771475 15.983998 1.313351 4.374738 30.424501 -2.059858 8.784846 2.844629 4.399209 -0.633250 -22.647316 4.978733 -0.856590 -25.785781 -2.336330 0.698066 12.700318 -0.218286 -0.001962 1.021526 0.000100 -0.000138 0.000003 6.685705 -13.419998 31.464581 -5.779863 1.227923 -30.244334 -2.900179 0.215414 -14.769251 -1.628401 0.773478 4.309698 0.098528 0.000414 0.461565 -0.011945 -0.008651 -0.036690 -1.088959 -2.360715 -8.718886 0.917530 -0.020778 6.784390 1.530314 -0.151079 -0.014734 -0.491119 0.351316 -23.015675 0.000078 -0.000112 -0.000056 -0.000052 -0.014928 0.015044 0.459425 5.347389 -4.103647 -0.504922 5.223321 -6.036666 4.993193 2.849125 -4.193606 1.471824 0.781282 -18.876626 -0.256671 -3.497171 3.698042 2.785006 -3.874294 39.076209 0.806515 -1.848448 50.836466 8.647599 -1.667840 -38.325725 -3.922492 5.757581 -18.554643 -1.002391 -0.004212 -0.069863 -0.802194 0.160617 -0.479860 -0.804181 0.123502 -0.482649 2.532350 4.678407 -4.257064 -2.885171 -2.811544 115.038076 -0.116558 -0.658679 -16.364240 -3.057388 -1.892146 -23.558074 -0.563473 -2.074337 -34.671509 -2.481822 11.076623 -1.034831 0.036611 0.063819 2.451875 -0.000913 0.100573 2.451955 3.500589 3.597067 -5.039734 5.122124 2.654245 -6.712585 -0.335273 1.023211 -4.198808 -3.140741 0.074348 -11.339015 -0.514614 6.781562 -6.663819 3.957795 0.714653 -13.957773 1.077995 -0.371583 -3.078957 4.464821 -6.119497 24.632777 -0.000029 0.000324 33.480061 -0.441785 -0.458727 -72.796108 -0.000058 -0.000072 -21.993998 0.000020 -0.000008 -0.026807 0.000002 -0.000016 0.012747 -0.000096 -0.000111 -34.639899 0.000035 0.000016 0.015160 0.000025 -0.000009 0.012721 -0.000049 -0.000056 -24.223455 0.000013 -0.000014 -0.000053 8.928189 -2.240710 19.835899 8.365126 1.055175 12.549857 -8.941201 -16.949456 1.147965 0.024189 -0.030008 11.786594 0.012373 -0.002609 0.003938 0.023213 -0.032299 11.715981 2.041464 2.324661 -21.437430 0.050257 0.015099 11.755972 -2.963644 -3.392532 -21.488146 0.050120 0.014754 11.743127 0.646567 0.597925 -1.496384 -0.004525 -0.052597 11.750674 0.000072 -0.000033 11.750680 
